<svg xmlns="http://www.w3.org/2000/svg" viewBox="0 0 320 320">
  <rect width="320" height="320" fill="none"/>
  <g fill="#f5f6f7" fill-opacity="0.14">
    <path d="M82 44a14 14 0 1 1 28 0 14 14 0 0 1-28 0Zm23 22-20 30c-5 7-4 17 3 22l18 14-34 10c-6 2-10 8-9 14 1 7 7 11 13 10l58-10c8-1 13-9 11-17l-6-24 32 15c7 3 16 1 20-6s1-16-6-20l-38-20 10-18c4-8 1-18-7-22s-18-1-23 7Z"/>
    <path d="M230 128a13 13 0 1 1 26 0 13 13 0 0 1-26 0Zm18 20 18 26c5 7 4 16-3 21l-16 12 30 9c6 2 9 8 8 14-1 6-6 10-12 10l-52-9c-7-1-12-9-10-16l5-22-28 14c-6 3-14 1-18-5s-1-14 5-18l34-18-9-16c-4-7-1-16 6-20s16-1 20 5Z"/>
  </g>
  <g fill="#d81f26" fill-opacity="0.1">
    <circle cx="46" cy="206" r="8"/>
    <rect x="26" y="218" width="36" height="8" rx="4"/>
    <circle cx="274" cy="66" r="8"/>
    <rect x="254" y="78" width="38" height="8" rx="4"/>
  </g>
  <g stroke="#f5f6f7" stroke-opacity="0.12" stroke-width="2">
    <path d="M0 0h320M0 160h320M0 320h320M0 0v320M160 0v320M320 0v320"/>
  </g>
</svg>
